{
	"asset":{
		"generator":"Khronos glTF Blender I/O v3.5.30",
		"version":"2.0"
	},
	"scene":0,
	"scenes":[
		{
			"name":"Scene",
			"nodes":[
				0,
				1
			]
		}
	],
	"nodes":[
		{
			"mesh":0,
			"name":"\ud3c9\uba74.001",
			"scale":[
				4.333751201629639,
				12.268816947937012,
				4.333751201629639
			],
			"translation":[
				0,
				-1.4047476053237915,
				-0.05460786819458008
			]
		},
		{
			"mesh":1,
			"name":"Cube"
		}
	],
	"materials":[
		{
			"doubleSided":true,
			"name":"melanie",
			"pbrMetallicRoughness":{
				"baseColorFactor":[
					0.16146060824394226,
					0.06299492716789246,
					0.029776152223348618,
					1
				],
				"metallicFactor":0,
				"roughnessFactor":0.699999988079071
			}
		},
		{
			"doubleSided":true,
			"name":"melanie.001",
			"pbrMetallicRoughness":{
				"baseColorFactor":[
					0.16146060824394226,
					0.06299492716789246,
					0.029776152223348618,
					1
				],
				"metallicFactor":0,
				"roughnessFactor":0.699999988079071
			}
		},
		{
			"doubleSided":true,
			"name":"eyes.003",
			"pbrMetallicRoughness":{
				"baseColorFactor":[
					0,
					0,
					0,
					1
				],
				"metallicFactor":0,
				"roughnessFactor":0.5
			}
		},
		{
			"doubleSided":true,
			"name":"melanie.002",
			"pbrMetallicRoughness":{
				"baseColorFactor":[
					0.16146060824394226,
					0.06299492716789246,
					0.029776152223348618,
					1
				],
				"metallicFactor":0,
				"roughnessFactor":0.699999988079071
			}
		},
		{
			"doubleSided":true,
			"name":"eyes.001",
			"pbrMetallicRoughness":{
				"baseColorFactor":[
					0,
					0,
					0,
					1
				],
				"metallicFactor":0,
				"roughnessFactor":0.5
			}
		},
		{
			"doubleSided":true,
			"name":"eyes.002",
			"pbrMetallicRoughness":{
				"baseColorFactor":[
					0,
					0,
					0,
					1
				],
				"metallicFactor":0,
				"roughnessFactor":0.5
			}
		}
	],
	"meshes":[
		{
			"name":"\ud3c9\uba74.001",
			"primitives":[
				{
					"attributes":{
						"POSITION":0,
						"TEXCOORD_0":1,
						"NORMAL":2
					},
					"indices":3
				}
			]
		},
		{
			"name":"Cube",
			"primitives":[
				{
					"attributes":{
						"POSITION":4,
						"TEXCOORD_0":5,
						"TEXCOORD_1":6,
						"NORMAL":7
					},
					"indices":8,
					"material":0
				},
				{
					"attributes":{
						"POSITION":9,
						"TEXCOORD_0":10,
						"TEXCOORD_1":11,
						"NORMAL":12
					},
					"indices":8,
					"material":1
				},
				{
					"attributes":{
						"POSITION":13,
						"TEXCOORD_0":14,
						"TEXCOORD_1":15,
						"NORMAL":16
					},
					"indices":17,
					"material":2
				},
				{
					"attributes":{
						"POSITION":18,
						"TEXCOORD_0":19,
						"TEXCOORD_1":20,
						"NORMAL":21
					},
					"indices":8,
					"material":3
				},
				{
					"attributes":{
						"POSITION":22,
						"TEXCOORD_0":23,
						"TEXCOORD_1":24,
						"NORMAL":25
					},
					"indices":17,
					"material":4
				},
				{
					"attributes":{
						"POSITION":26,
						"TEXCOORD_0":27,
						"TEXCOORD_1":28,
						"NORMAL":29
					},
					"indices":17,
					"material":5
				}
			]
		}
	],
	"accessors":[
		{
			"bufferView":0,
			"componentType":5126,
			"count":6,
			"max":[
				1,
				0.41302016377449036,
				1
			],
			"min":[
				-1,
				0,
				-1
			],
			"type":"VEC3"
		},
		{
			"bufferView":1,
			"componentType":5126,
			"count":6,
			"type":"VEC2"
		},
		{
			"bufferView":2,
			"componentType":5126,
			"count":6,
			"type":"VEC3"
		},
		{
			"bufferView":3,
			"componentType":5123,
			"count":12,
			"type":"SCALAR"
		},
		{
			"bufferView":4,
			"componentType":5126,
			"count":226,
			"max":[
				0.8395062685012817,
				1.699996829032898,
				0.6779870390892029
			],
			"min":[
				-0.8383471369743347,
				-0.6017250418663025,
				-0.6779870390892029
			],
			"type":"VEC3"
		},
		{
			"bufferView":5,
			"componentType":5126,
			"count":226,
			"type":"VEC2"
		},
		{
			"bufferView":6,
			"componentType":5126,
			"count":226,
			"type":"VEC2"
		},
		{
			"bufferView":7,
			"componentType":5126,
			"count":226,
			"type":"VEC3"
		},
		{
			"bufferView":8,
			"componentType":5123,
			"count":1152,
			"type":"SCALAR"
		},
		{
			"bufferView":9,
			"componentType":5126,
			"count":226,
			"max":[
				0.8395062685012817,
				1.699996829032898,
				0.6779870390892029
			],
			"min":[
				-0.8383471369743347,
				-0.6017250418663025,
				-0.6779870390892029
			],
			"type":"VEC3"
		},
		{
			"bufferView":10,
			"componentType":5126,
			"count":226,
			"type":"VEC2"
		},
		{
			"bufferView":11,
			"componentType":5126,
			"count":226,
			"type":"VEC2"
		},
		{
			"bufferView":12,
			"componentType":5126,
			"count":226,
			"type":"VEC3"
		},
		{
			"bufferView":13,
			"componentType":5126,
			"count":151,
			"max":[
				0.29544007778167725,
				0.12452638894319534,
				0.6581201553344727
			],
			"min":[
				0.2051391452550888,
				0.03422544151544571,
				0.5678192377090454
			],
			"type":"VEC3"
		},
		{
			"bufferView":14,
			"componentType":5126,
			"count":151,
			"type":"VEC2"
		},
		{
			"bufferView":15,
			"componentType":5126,
			"count":151,
			"type":"VEC2"
		},
		{
			"bufferView":16,
			"componentType":5126,
			"count":151,
			"type":"VEC3"
		},
		{
			"bufferView":17,
			"componentType":5123,
			"count":672,
			"type":"SCALAR"
		},
		{
			"bufferView":18,
			"componentType":5126,
			"count":226,
			"max":[
				0.8395062685012817,
				1.699996829032898,
				0.6779870390892029
			],
			"min":[
				-0.8383471369743347,
				-0.6017250418663025,
				-0.6779870390892029
			],
			"type":"VEC3"
		},
		{
			"bufferView":19,
			"componentType":5126,
			"count":226,
			"type":"VEC2"
		},
		{
			"bufferView":20,
			"componentType":5126,
			"count":226,
			"type":"VEC2"
		},
		{
			"bufferView":21,
			"componentType":5126,
			"count":226,
			"type":"VEC3"
		},
		{
			"bufferView":22,
			"componentType":5126,
			"count":151,
			"max":[
				0.29544007778167725,
				0.12452638894319534,
				0.6581201553344727
			],
			"min":[
				0.2051391452550888,
				0.03422544151544571,
				0.5678192377090454
			],
			"type":"VEC3"
		},
		{
			"bufferView":23,
			"componentType":5126,
			"count":151,
			"type":"VEC2"
		},
		{
			"bufferView":24,
			"componentType":5126,
			"count":151,
			"type":"VEC2"
		},
		{
			"bufferView":25,
			"componentType":5126,
			"count":151,
			"type":"VEC3"
		},
		{
			"bufferView":26,
			"componentType":5126,
			"count":151,
			"max":[
				-0.2072247415781021,
				0.12452638894319534,
				0.6581201553344727
			],
			"min":[
				-0.29752570390701294,
				0.03422544151544571,
				0.5678192377090454
			],
			"type":"VEC3"
		},
		{
			"bufferView":27,
			"componentType":5126,
			"count":151,
			"type":"VEC2"
		},
		{
			"bufferView":28,
			"componentType":5126,
			"count":151,
			"type":"VEC2"
		},
		{
			"bufferView":29,
			"componentType":5126,
			"count":151,
			"type":"VEC3"
		}
	],
	"bufferViews":[
		{
			"buffer":0,
			"byteLength":72,
			"byteOffset":0,
			"target":34962
		},
		{
			"buffer":0,
			"byteLength":48,
			"byteOffset":72,
			"target":34962
		},
		{
			"buffer":0,
			"byteLength":72,
			"byteOffset":120,
			"target":34962
		},
		{
			"buffer":0,
			"byteLength":24,
			"byteOffset":192,
			"target":34963
		},
		{
			"buffer":0,
			"byteLength":2712,
			"byteOffset":216,
			"target":34962
		},
		{
			"buffer":0,
			"byteLength":1808,
			"byteOffset":2928,
			"target":34962
		},
		{
			"buffer":0,
			"byteLength":1808,
			"byteOffset":4736,
			"target":34962
		},
		{
			"buffer":0,
			"byteLength":2712,
			"byteOffset":6544,
			"target":34962
		},
		{
			"buffer":0,
			"byteLength":2304,
			"byteOffset":9256,
			"target":34963
		},
		{
			"buffer":0,
			"byteLength":2712,
			"byteOffset":11560,
			"target":34962
		},
		{
			"buffer":0,
			"byteLength":1808,
			"byteOffset":14272,
			"target":34962
		},
		{
			"buffer":0,
			"byteLength":1808,
			"byteOffset":16080,
			"target":34962
		},
		{
			"buffer":0,
			"byteLength":2712,
			"byteOffset":17888,
			"target":34962
		},
		{
			"buffer":0,
			"byteLength":1812,
			"byteOffset":20600,
			"target":34962
		},
		{
			"buffer":0,
			"byteLength":1208,
			"byteOffset":22412,
			"target":34962
		},
		{
			"buffer":0,
			"byteLength":1208,
			"byteOffset":23620,
			"target":34962
		},
		{
			"buffer":0,
			"byteLength":1812,
			"byteOffset":24828,
			"target":34962
		},
		{
			"buffer":0,
			"byteLength":1344,
			"byteOffset":26640,
			"target":34963
		},
		{
			"buffer":0,
			"byteLength":2712,
			"byteOffset":27984,
			"target":34962
		},
		{
			"buffer":0,
			"byteLength":1808,
			"byteOffset":30696,
			"target":34962
		},
		{
			"buffer":0,
			"byteLength":1808,
			"byteOffset":32504,
			"target":34962
		},
		{
			"buffer":0,
			"byteLength":2712,
			"byteOffset":34312,
			"target":34962
		},
		{
			"buffer":0,
			"byteLength":1812,
			"byteOffset":37024,
			"target":34962
		},
		{
			"buffer":0,
			"byteLength":1208,
			"byteOffset":38836,
			"target":34962
		},
		{
			"buffer":0,
			"byteLength":1208,
			"byteOffset":40044,
			"target":34962
		},
		{
			"buffer":0,
			"byteLength":1812,
			"byteOffset":41252,
			"target":34962
		},
		{
			"buffer":0,
			"byteLength":1812,
			"byteOffset":43064,
			"target":34962
		},
		{
			"buffer":0,
			"byteLength":1208,
			"byteOffset":44876,
			"target":34962
		},
		{
			"buffer":0,
			"byteLength":1208,
			"byteOffset":46084,
			"target":34962
		},
		{
			"buffer":0,
			"byteLength":1812,
			"byteOffset":47292,
			"target":34962
		}
	],
	"buffers":[
		{
			"byteLength":49104,
			"uri":"data:application/octet-stream;base64,"
		}
	]
}
